<mxfile host="app.diagrams.net" modified="2022-03-30T08:37:07.311Z" agent="5.0 (Windows NT 10.0; Win64; x64) AppleWebKit/537.36 (KHTML, like Gecko) Chrome/99.0.4844.82 Safari/537.36" etag="BV8EsRfXuv-WfkDteuWM" version="17.2.5" type="github">
  <diagram id="jeFWRLA8T4rqRnHM4xb7" name="Page-1">
    <mxGraphModel dx="1422" dy="762" grid="1" gridSize="10" guides="1" tooltips="1" connect="1" arrows="1" fold="1" page="1" pageScale="1" pageWidth="827" pageHeight="1169" math="0" shadow="0">
      <root>
        <mxCell id="0" />
        <mxCell id="1" parent="0" />
        <mxCell id="eMcWHgDYrI_YnwCtjTug-53" value="" style="ellipse;whiteSpace=wrap;html=1;aspect=fixed;" parent="1" vertex="1">
          <mxGeometry x="50" y="1390" width="650" height="650" as="geometry" />
        </mxCell>
        <mxCell id="eMcWHgDYrI_YnwCtjTug-54" value="" style="ellipse;whiteSpace=wrap;html=1;aspect=fixed;" parent="1" vertex="1">
          <mxGeometry x="160" y="1485" width="430" height="430" as="geometry" />
        </mxCell>
        <mxCell id="eMcWHgDYrI_YnwCtjTug-1" value="Criterion 1" style="ellipse;whiteSpace=wrap;html=1;fillColor=#dae8fc;strokeColor=#6c8ebf;" parent="1" vertex="1">
          <mxGeometry x="230" y="90" width="120" height="80" as="geometry" />
        </mxCell>
        <mxCell id="eMcWHgDYrI_YnwCtjTug-2" value="Source 1" style="rounded=1;whiteSpace=wrap;html=1;fillColor=#d5e8d4;strokeColor=#82b366;" parent="1" vertex="1">
          <mxGeometry x="530" y="40" width="120" height="60" as="geometry" />
        </mxCell>
        <mxCell id="eMcWHgDYrI_YnwCtjTug-3" value="" style="endArrow=classic;startArrow=classic;html=1;rounded=0;exitX=0.992;exitY=0.363;exitDx=0;exitDy=0;exitPerimeter=0;entryX=0;entryY=0.5;entryDx=0;entryDy=0;" parent="1" source="eMcWHgDYrI_YnwCtjTug-1" target="eMcWHgDYrI_YnwCtjTug-2" edge="1">
          <mxGeometry width="50" height="50" relative="1" as="geometry">
            <mxPoint x="230" y="370" as="sourcePoint" />
            <mxPoint x="280" y="320" as="targetPoint" />
          </mxGeometry>
        </mxCell>
        <mxCell id="eMcWHgDYrI_YnwCtjTug-4" value="Source 2" style="rounded=1;whiteSpace=wrap;html=1;fillColor=#d5e8d4;strokeColor=#82b366;" parent="1" vertex="1">
          <mxGeometry x="530" y="140" width="120" height="60" as="geometry" />
        </mxCell>
        <mxCell id="eMcWHgDYrI_YnwCtjTug-5" value="" style="endArrow=classic;startArrow=classic;html=1;rounded=0;exitX=1;exitY=0.5;exitDx=0;exitDy=0;entryX=0;entryY=0.5;entryDx=0;entryDy=0;" parent="1" source="eMcWHgDYrI_YnwCtjTug-1" target="eMcWHgDYrI_YnwCtjTug-4" edge="1">
          <mxGeometry width="50" height="50" relative="1" as="geometry">
            <mxPoint x="229.03999999999996" y="129.03999999999996" as="sourcePoint" />
            <mxPoint x="330" y="50" as="targetPoint" />
          </mxGeometry>
        </mxCell>
        <mxCell id="eMcWHgDYrI_YnwCtjTug-6" value="Criterion 2" style="ellipse;whiteSpace=wrap;html=1;fillColor=#dae8fc;strokeColor=#6c8ebf;" parent="1" vertex="1">
          <mxGeometry x="230" y="230" width="120" height="80" as="geometry" />
        </mxCell>
        <mxCell id="eMcWHgDYrI_YnwCtjTug-7" value="" style="endArrow=classic;startArrow=classic;html=1;rounded=0;exitX=1;exitY=0.5;exitDx=0;exitDy=0;entryX=0;entryY=0.5;entryDx=0;entryDy=0;" parent="1" source="eMcWHgDYrI_YnwCtjTug-6" target="eMcWHgDYrI_YnwCtjTug-2" edge="1">
          <mxGeometry width="50" height="50" relative="1" as="geometry">
            <mxPoint x="280" y="150" as="sourcePoint" />
            <mxPoint x="490" y="280" as="targetPoint" />
          </mxGeometry>
        </mxCell>
        <mxCell id="eMcWHgDYrI_YnwCtjTug-8" value="" style="endArrow=classic;startArrow=classic;html=1;rounded=0;exitX=1;exitY=0.625;exitDx=0;exitDy=0;entryX=0;entryY=0.5;entryDx=0;entryDy=0;exitPerimeter=0;" parent="1" source="eMcWHgDYrI_YnwCtjTug-6" target="eMcWHgDYrI_YnwCtjTug-9" edge="1">
          <mxGeometry width="50" height="50" relative="1" as="geometry">
            <mxPoint x="264" y="290" as="sourcePoint" />
            <mxPoint x="530" y="470" as="targetPoint" />
          </mxGeometry>
        </mxCell>
        <mxCell id="eMcWHgDYrI_YnwCtjTug-9" value="Source 3" style="rounded=1;whiteSpace=wrap;html=1;fillColor=#d5e8d4;strokeColor=#82b366;" parent="1" vertex="1">
          <mxGeometry x="540" y="260" width="120" height="60" as="geometry" />
        </mxCell>
        <mxCell id="eMcWHgDYrI_YnwCtjTug-10" value="Source 4" style="rounded=1;whiteSpace=wrap;html=1;fillColor=#d5e8d4;strokeColor=#82b366;" parent="1" vertex="1">
          <mxGeometry x="520" y="350" width="120" height="60" as="geometry" />
        </mxCell>
        <mxCell id="eMcWHgDYrI_YnwCtjTug-11" value="" style="endArrow=classic;startArrow=classic;html=1;rounded=0;exitX=0.908;exitY=0.825;exitDx=0;exitDy=0;exitPerimeter=0;" parent="1" source="eMcWHgDYrI_YnwCtjTug-6" edge="1">
          <mxGeometry width="50" height="50" relative="1" as="geometry">
            <mxPoint x="300" y="320" as="sourcePoint" />
            <mxPoint x="530" y="390" as="targetPoint" />
          </mxGeometry>
        </mxCell>
        <mxCell id="eMcWHgDYrI_YnwCtjTug-12" value="&lt;h1&gt;Calculation criterion&lt;/h1&gt;&lt;p&gt;Characteristic :&lt;/p&gt;&lt;p&gt;- Strength (Impact of this criterion to the global score)&lt;/p&gt;&lt;p&gt;- Equality (How much the data value are equals on all source)&lt;/p&gt;&lt;p&gt;- Veracity :(How much the data value a correct on all data source)&lt;/p&gt;&lt;p&gt;&lt;br&gt;&lt;/p&gt;&lt;p&gt;&lt;br&gt;&lt;/p&gt;&lt;p&gt;&lt;br&gt;&lt;/p&gt;&lt;p&gt;&lt;br&gt;&lt;/p&gt;" style="text;html=1;strokeColor=none;fillColor=none;spacing=5;spacingTop=-20;whiteSpace=wrap;overflow=hidden;rounded=0;" parent="1" vertex="1">
          <mxGeometry x="100" y="970" width="240" height="220" as="geometry" />
        </mxCell>
        <mxCell id="eMcWHgDYrI_YnwCtjTug-13" value="&lt;h1&gt;Calculation source&lt;/h1&gt;&lt;p&gt;Characteristic :&lt;/p&gt;&lt;p&gt;- Strength (Impact of this source to the global source score)&lt;/p&gt;&lt;p&gt;&lt;br&gt;&lt;/p&gt;&lt;p&gt;&lt;br&gt;&lt;/p&gt;&lt;p&gt;&lt;br&gt;&lt;/p&gt;&lt;p&gt;&lt;br&gt;&lt;/p&gt;" style="text;html=1;strokeColor=none;fillColor=none;spacing=5;spacingTop=-20;whiteSpace=wrap;overflow=hidden;rounded=0;" parent="1" vertex="1">
          <mxGeometry x="380" y="970" width="240" height="200" as="geometry" />
        </mxCell>
        <mxCell id="eMcWHgDYrI_YnwCtjTug-14" value="Is the calculation configuration (Strength etc..) is by market segment ?&lt;br&gt;&lt;div style=&quot;text-align: left&quot;&gt;&lt;span&gt;Maybe the &quot;picture&quot; criterion have a greather strength for a restaurant than for a doctor.&lt;/span&gt;&lt;/div&gt;&lt;div style=&quot;text-align: left&quot;&gt;&lt;span&gt;&lt;br&gt;&lt;/span&gt;&lt;/div&gt;&lt;div style=&quot;text-align: left&quot;&gt;&lt;span&gt;Is Criterion is by market segment ? For exemple the criterion &quot;Having a tripadvisor webpage&quot; is specific to restaurant&lt;/span&gt;&lt;/div&gt;" style="text;html=1;strokeColor=none;fillColor=none;align=center;verticalAlign=middle;whiteSpace=wrap;rounded=0;" parent="1" vertex="1">
          <mxGeometry x="100" y="1190" width="580" height="60" as="geometry" />
        </mxCell>
        <mxCell id="eMcWHgDYrI_YnwCtjTug-15" value="A source can be used only for one criterion" style="text;html=1;strokeColor=none;fillColor=none;align=center;verticalAlign=middle;whiteSpace=wrap;rounded=0;" parent="1" vertex="1">
          <mxGeometry x="110" y="1260" width="580" height="40" as="geometry" />
        </mxCell>
        <mxCell id="eMcWHgDYrI_YnwCtjTug-16" value="All Characteristic must be easly configuration" style="text;html=1;strokeColor=none;fillColor=none;align=center;verticalAlign=middle;whiteSpace=wrap;rounded=0;" parent="1" vertex="1">
          <mxGeometry x="110" y="1310" width="580" height="40" as="geometry" />
        </mxCell>
        <mxCell id="eMcWHgDYrI_YnwCtjTug-17" value="All Characteristic must be calculated on each data change" style="text;html=1;strokeColor=none;fillColor=none;align=center;verticalAlign=middle;whiteSpace=wrap;rounded=0;" parent="1" vertex="1">
          <mxGeometry x="110" y="1350" width="580" height="40" as="geometry" />
        </mxCell>
        <mxCell id="eMcWHgDYrI_YnwCtjTug-20" value="SUBJECT 1" style="shape=process;whiteSpace=wrap;html=1;backgroundOutline=1;" parent="1" vertex="1">
          <mxGeometry x="60" y="150" width="120" height="60" as="geometry" />
        </mxCell>
        <mxCell id="eMcWHgDYrI_YnwCtjTug-21" value="Criterion 5" style="ellipse;whiteSpace=wrap;html=1;fillColor=#dae8fc;strokeColor=#6c8ebf;" parent="1" vertex="1">
          <mxGeometry x="260" y="530" width="120" height="80" as="geometry" />
        </mxCell>
        <mxCell id="eMcWHgDYrI_YnwCtjTug-22" value="Source 1" style="rounded=1;whiteSpace=wrap;html=1;fillColor=#d5e8d4;strokeColor=#82b366;" parent="1" vertex="1">
          <mxGeometry x="560" y="480" width="120" height="60" as="geometry" />
        </mxCell>
        <mxCell id="eMcWHgDYrI_YnwCtjTug-23" value="" style="endArrow=classic;startArrow=classic;html=1;rounded=0;exitX=0.992;exitY=0.363;exitDx=0;exitDy=0;exitPerimeter=0;entryX=0;entryY=0.5;entryDx=0;entryDy=0;" parent="1" source="eMcWHgDYrI_YnwCtjTug-21" target="eMcWHgDYrI_YnwCtjTug-22" edge="1">
          <mxGeometry width="50" height="50" relative="1" as="geometry">
            <mxPoint x="260" y="810" as="sourcePoint" />
            <mxPoint x="310" y="760" as="targetPoint" />
          </mxGeometry>
        </mxCell>
        <mxCell id="eMcWHgDYrI_YnwCtjTug-24" value="Source 20" style="rounded=1;whiteSpace=wrap;html=1;fillColor=#d5e8d4;strokeColor=#82b366;" parent="1" vertex="1">
          <mxGeometry x="560" y="580" width="120" height="60" as="geometry" />
        </mxCell>
        <mxCell id="eMcWHgDYrI_YnwCtjTug-25" value="" style="endArrow=classic;startArrow=classic;html=1;rounded=0;exitX=1;exitY=0.5;exitDx=0;exitDy=0;entryX=0;entryY=0.5;entryDx=0;entryDy=0;" parent="1" source="eMcWHgDYrI_YnwCtjTug-21" target="eMcWHgDYrI_YnwCtjTug-24" edge="1">
          <mxGeometry width="50" height="50" relative="1" as="geometry">
            <mxPoint x="259.03999999999996" y="569.04" as="sourcePoint" />
            <mxPoint x="360" y="490" as="targetPoint" />
          </mxGeometry>
        </mxCell>
        <mxCell id="eMcWHgDYrI_YnwCtjTug-26" value="Criterion 2" style="ellipse;whiteSpace=wrap;html=1;fillColor=#dae8fc;strokeColor=#6c8ebf;" parent="1" vertex="1">
          <mxGeometry x="260" y="670" width="120" height="80" as="geometry" />
        </mxCell>
        <mxCell id="eMcWHgDYrI_YnwCtjTug-27" value="" style="endArrow=classic;startArrow=classic;html=1;rounded=0;exitX=1;exitY=0.5;exitDx=0;exitDy=0;entryX=0;entryY=0.5;entryDx=0;entryDy=0;" parent="1" source="eMcWHgDYrI_YnwCtjTug-26" target="eMcWHgDYrI_YnwCtjTug-22" edge="1">
          <mxGeometry width="50" height="50" relative="1" as="geometry">
            <mxPoint x="310" y="590" as="sourcePoint" />
            <mxPoint x="520" y="720" as="targetPoint" />
          </mxGeometry>
        </mxCell>
        <mxCell id="eMcWHgDYrI_YnwCtjTug-28" value="" style="endArrow=classic;startArrow=classic;html=1;rounded=0;exitX=1;exitY=0.625;exitDx=0;exitDy=0;entryX=0;entryY=0.5;entryDx=0;entryDy=0;exitPerimeter=0;" parent="1" source="eMcWHgDYrI_YnwCtjTug-26" target="eMcWHgDYrI_YnwCtjTug-29" edge="1">
          <mxGeometry width="50" height="50" relative="1" as="geometry">
            <mxPoint x="294" y="730" as="sourcePoint" />
            <mxPoint x="560" y="910" as="targetPoint" />
          </mxGeometry>
        </mxCell>
        <mxCell id="eMcWHgDYrI_YnwCtjTug-29" value="Source 41" style="rounded=1;whiteSpace=wrap;html=1;fillColor=#d5e8d4;strokeColor=#82b366;" parent="1" vertex="1">
          <mxGeometry x="570" y="700" width="120" height="60" as="geometry" />
        </mxCell>
        <mxCell id="eMcWHgDYrI_YnwCtjTug-30" value="Source 4" style="rounded=1;whiteSpace=wrap;html=1;fillColor=#d5e8d4;strokeColor=#82b366;" parent="1" vertex="1">
          <mxGeometry x="550" y="790" width="120" height="60" as="geometry" />
        </mxCell>
        <mxCell id="eMcWHgDYrI_YnwCtjTug-31" value="" style="endArrow=classic;startArrow=classic;html=1;rounded=0;exitX=0.908;exitY=0.825;exitDx=0;exitDy=0;exitPerimeter=0;" parent="1" source="eMcWHgDYrI_YnwCtjTug-26" edge="1">
          <mxGeometry width="50" height="50" relative="1" as="geometry">
            <mxPoint x="330" y="760" as="sourcePoint" />
            <mxPoint x="560" y="830" as="targetPoint" />
          </mxGeometry>
        </mxCell>
        <mxCell id="eMcWHgDYrI_YnwCtjTug-32" value="SUBJECT 2" style="shape=process;whiteSpace=wrap;html=1;backgroundOutline=1;" parent="1" vertex="1">
          <mxGeometry x="50" y="640" width="120" height="60" as="geometry" />
        </mxCell>
        <mxCell id="eMcWHgDYrI_YnwCtjTug-33" value="Criterion 4" style="ellipse;whiteSpace=wrap;html=1;fillColor=#dae8fc;strokeColor=#6c8ebf;" parent="1" vertex="1">
          <mxGeometry x="260" y="790" width="120" height="80" as="geometry" />
        </mxCell>
        <mxCell id="eMcWHgDYrI_YnwCtjTug-35" value="" style="endArrow=classic;startArrow=classic;html=1;rounded=0;exitX=1;exitY=0.5;exitDx=0;exitDy=0;" parent="1" source="eMcWHgDYrI_YnwCtjTug-33" edge="1">
          <mxGeometry width="50" height="50" relative="1" as="geometry">
            <mxPoint x="378.96000000000004" y="746" as="sourcePoint" />
            <mxPoint x="550" y="830" as="targetPoint" />
          </mxGeometry>
        </mxCell>
        <mxCell id="eMcWHgDYrI_YnwCtjTug-37" value="Photo &amp;amp; Video" style="ellipse;whiteSpace=wrap;html=1;fillColor=#dae8fc;strokeColor=#6c8ebf;" parent="1" vertex="1">
          <mxGeometry x="250" y="1570" width="120" height="80" as="geometry" />
        </mxCell>
        <mxCell id="eMcWHgDYrI_YnwCtjTug-42" value="Seo Optimization" style="ellipse;whiteSpace=wrap;html=1;fillColor=#dae8fc;strokeColor=#6c8ebf;" parent="1" vertex="1">
          <mxGeometry x="400" y="1570" width="120" height="80" as="geometry" />
        </mxCell>
        <mxCell id="eMcWHgDYrI_YnwCtjTug-48" value="Restaurant mia terra" style="shape=process;whiteSpace=wrap;html=1;backgroundOutline=1;" parent="1" vertex="1">
          <mxGeometry x="310" y="1670" width="120" height="60" as="geometry" />
        </mxCell>
        <mxCell id="eMcWHgDYrI_YnwCtjTug-49" value="Having a facebook page" style="ellipse;whiteSpace=wrap;html=1;fillColor=#dae8fc;strokeColor=#6c8ebf;" parent="1" vertex="1">
          <mxGeometry x="180" y="1660" width="120" height="80" as="geometry" />
        </mxCell>
        <mxCell id="eMcWHgDYrI_YnwCtjTug-51" value="Having a linkedin page" style="ellipse;whiteSpace=wrap;html=1;fillColor=#dae8fc;strokeColor=#6c8ebf;" parent="1" vertex="1">
          <mxGeometry x="255" y="1740" width="120" height="80" as="geometry" />
        </mxCell>
        <mxCell id="eMcWHgDYrI_YnwCtjTug-52" value="Review" style="ellipse;whiteSpace=wrap;html=1;fillColor=#dae8fc;strokeColor=#6c8ebf;" parent="1" vertex="1">
          <mxGeometry x="440" y="1680" width="120" height="80" as="geometry" />
        </mxCell>
        <mxCell id="eMcWHgDYrI_YnwCtjTug-55" value="Facebook" style="rounded=1;whiteSpace=wrap;html=1;fillColor=#d5e8d4;strokeColor=#82b366;" parent="1" vertex="1">
          <mxGeometry x="75" y="1696" width="70" height="34" as="geometry" />
        </mxCell>
        <mxCell id="eMcWHgDYrI_YnwCtjTug-58" value="Linkedin&lt;span style=&quot;color: rgba(0 , 0 , 0 , 0) ; font-family: monospace ; font-size: 0px&quot;&gt;%3CmxGraphModel%3E%3Croot%3E%3CmxCell%20id%3D%220%22%2F%3E%3CmxCell%20id%3D%221%22%20parent%3D%220%22%2F%3E%3CmxCell%20id%3D%222%22%20value%3D%22Facebook%22%20style%3D%22rounded%3D1%3BwhiteSpace%3Dwrap%3Bhtml%3D1%3BfillColor%3D%23d5e8d4%3BstrokeColor%3D%2382b366%3B%22%20vertex%3D%221%22%20parent%3D%221%22%3E%3CmxGeometry%20x%3D%2275%22%20y%3D%221696%22%20width%3D%2270%22%20height%3D%2234%22%20as%3D%22geometry%22%2F%3E%3C%2FmxCell%3E%3C%2Froot%3E%3C%2FmxGraphModel%3E&lt;/span&gt;" style="rounded=1;whiteSpace=wrap;html=1;fillColor=#d5e8d4;strokeColor=#82b366;" parent="1" vertex="1">
          <mxGeometry x="205" y="1915" width="70" height="34" as="geometry" />
        </mxCell>
        <mxCell id="eMcWHgDYrI_YnwCtjTug-59" value="Google my business" style="rounded=1;whiteSpace=wrap;html=1;fillColor=#d5e8d4;strokeColor=#82b366;" parent="1" vertex="1">
          <mxGeometry x="610" y="1698" width="70" height="34" as="geometry" />
        </mxCell>
        <mxCell id="eMcWHgDYrI_YnwCtjTug-60" value="Tripadvisor" style="rounded=1;whiteSpace=wrap;html=1;fillColor=#d5e8d4;strokeColor=#82b366;" parent="1" vertex="1">
          <mxGeometry x="510" y="1890" width="70" height="34" as="geometry" />
        </mxCell>
        <mxCell id="eMcWHgDYrI_YnwCtjTug-61" value="La fourchette" style="rounded=1;whiteSpace=wrap;html=1;fillColor=#d5e8d4;strokeColor=#82b366;" parent="1" vertex="1">
          <mxGeometry x="560" y="1530" width="70" height="34" as="geometry" />
        </mxCell>
        <mxCell id="eMcWHgDYrI_YnwCtjTug-62" value="Pepler" style="rounded=1;whiteSpace=wrap;html=1;fillColor=#d5e8d4;strokeColor=#82b366;" parent="1" vertex="1">
          <mxGeometry x="355" y="1420" width="70" height="34" as="geometry" />
        </mxCell>
        <mxCell id="eMcWHgDYrI_YnwCtjTug-63" value="Uber eat" style="rounded=1;whiteSpace=wrap;html=1;fillColor=#d5e8d4;strokeColor=#82b366;" parent="1" vertex="1">
          <mxGeometry x="160" y="1496" width="70" height="34" as="geometry" />
        </mxCell>
        <mxCell id="eMcWHgDYrI_YnwCtjTug-64" value="Strength : 70&amp;nbsp;" style="text;html=1;strokeColor=none;fillColor=none;align=center;verticalAlign=middle;whiteSpace=wrap;rounded=0;" parent="1" vertex="1">
          <mxGeometry x="255" y="1560" width="100" height="10" as="geometry" />
        </mxCell>
        <mxCell id="eMcWHgDYrI_YnwCtjTug-65" value="Strength : 70&amp;nbsp;" style="text;html=1;strokeColor=none;fillColor=none;align=center;verticalAlign=middle;whiteSpace=wrap;rounded=0;" parent="1" vertex="1">
          <mxGeometry x="410" y="1560" width="100" height="10" as="geometry" />
        </mxCell>
        <mxCell id="eMcWHgDYrI_YnwCtjTug-66" value="Strength : 90&amp;nbsp;" style="text;html=1;strokeColor=none;fillColor=none;align=center;verticalAlign=middle;whiteSpace=wrap;rounded=0;" parent="1" vertex="1">
          <mxGeometry x="450" y="1670" width="100" height="10" as="geometry" />
        </mxCell>
        <mxCell id="eMcWHgDYrI_YnwCtjTug-67" value="Strength : 5" style="text;html=1;strokeColor=none;fillColor=none;align=center;verticalAlign=middle;whiteSpace=wrap;rounded=0;" parent="1" vertex="1">
          <mxGeometry x="250" y="1820" width="100" height="10" as="geometry" />
        </mxCell>
        <mxCell id="eMcWHgDYrI_YnwCtjTug-68" value="Strength : 50&amp;nbsp;" style="text;html=1;strokeColor=none;fillColor=none;align=center;verticalAlign=middle;whiteSpace=wrap;rounded=0;" parent="1" vertex="1">
          <mxGeometry x="190" y="1650" width="100" height="10" as="geometry" />
        </mxCell>
        <mxCell id="eMcWHgDYrI_YnwCtjTug-69" value="Having a tripadvisor page" style="ellipse;whiteSpace=wrap;html=1;fillColor=#dae8fc;strokeColor=#6c8ebf;" parent="1" vertex="1">
          <mxGeometry x="390" y="1760" width="120" height="80" as="geometry" />
        </mxCell>
        <mxCell id="eMcWHgDYrI_YnwCtjTug-71" value="Strength : 70&amp;nbsp;" style="text;html=1;strokeColor=none;fillColor=none;align=center;verticalAlign=middle;whiteSpace=wrap;rounded=0;" parent="1" vertex="1">
          <mxGeometry x="400" y="1850" width="100" height="10" as="geometry" />
        </mxCell>
      </root>
    </mxGraphModel>
  </diagram>
</mxfile>
